<?xml version="1.0" encoding="utf-8"?>
<!-- Generator: Adobe Illustrator 16.0.0, SVG Export Plug-In . SVG Version: 6.00 Build 0)  -->
<!DOCTYPE svg PUBLIC "-//W3C//DTD SVG 1.1//EN" "http://www.w3.org/Graphics/SVG/1.1/DTD/svg11.dtd">
<svg version="1.1" id="Layer_1" xmlns="http://www.w3.org/2000/svg" xmlns:xlink="http://www.w3.org/1999/xlink" x="0px" y="0px"
	 width="475px" height="475px" viewBox="0 0 475 475" enable-background="new 0 0 475 475" xml:space="preserve">
<g>
	<path fill="#FFFFFF" d="M-54.361-36.967c186.943,0,373.887,0,560.917,0c0,187.546,0,375.115,0,562.832
		c-186.916,0-373.917,0-560.917,0C-54.361,338.304-54.361,150.68-54.361-36.967z M224.523,443.009
		c-8.265,0-16.066,0.113-23.863-0.018c-40.938-0.695-78.771-12.02-111.762-36.238C27.211,361.468-1.167,299.906,4.638,223.628
		c4.975-65.354,33.571-119.415,83.949-161.129C137.074,22.352,193.444,4.821,256.249,9.958
		c64.961,5.312,118.86,33.379,160.401,83.39c42.793,51.518,60.043,111.319,52.008,177.919
		c-5.705,47.287-25.348,88.494-57.967,123.043c-43.285,45.848-96.855,69.281-159.967,70.729c-1.381,0.031-2.753,0.471-4.129,0.721
		c0.027,0.58,0.055,1.158,0.082,1.736c1.475,0.172,2.963,0.57,4.42,0.477c8.805-0.561,17.668-0.76,26.393-1.947
		c57.397-7.812,106.047-33.072,142.481-77.945c61.613-75.887,70.537-160.135,30.029-248.069
		C408.247,49.38,312.233-3.277,212.912,7.338c-68.446,7.315-124.097,38.775-165.267,93.983
		C8.346,154.02-7.907,213.778,4.213,278.568c14.598,78.029,61.254,130.578,136.155,157.406
		c24.298,8.701,49.684,10.756,75.342,10.047c2.915-0.08,5.835-0.01,9.593-0.01c0,8.176,0,15.582,0,22.988
		c0.629,0.004,1.258,0.008,1.887,0.014c0-7.549,0-15.096,0-23.002c7.986,0,14.993,0.488,21.908-0.104
		c14.239-1.215,28.733-1.658,42.592-4.777c107.996-24.32,176.045-127.09,156.773-235.943
		C431.036,106.745,347.226,32.035,247.417,28.445c-81.305-2.924-145.548,30.587-190.527,98.393
		c-30.234,45.578-41.7,96.594-30.626,150.324c14.449,70.1,57.518,116.223,125.67,138.449c15.592,5.086,31.816,7.113,48.223,7.35
		c1.515,0.021,3.039-0.596,4.559-0.914c-0.106-0.58-0.212-1.16-0.318-1.738c-1.431-0.1-2.868-0.143-4.291-0.307
		c-11.559-1.336-23.316-1.76-34.64-4.195C87.501,399.035,30.205,332.562,25.99,253.167c-2.792-52.596,12.534-99.999,45.1-141.51
		c55.816-71.15,152.117-99.77,236.277-68.409c77.229,28.777,124.107,84.646,138.35,166.129
		c9.537,54.564-2.387,105.175-35.014,150.021c-37.279,51.238-88.25,78.762-151.444,83.295c-10.379,0.744-20.856,0.105-31.236,0.105
		c0-14.146,0-27.865,0-42.664c12.189,0,24.108,1.049,35.789-0.18c50.893-5.354,91.159-29.543,118.012-72.912
		c34.131-55.123,33.402-112.295,2.367-168.438C334.978,69.58,214.948,45.402,134.514,107.688
		c-39.305,30.436-61.14,70.675-66.217,120.215c-6.132,59.835,27.069,116.833,82.354,140.494c15.8,6.762,32.35,10.15,49.508,10.561
		c1.51,0.037,3.036-0.592,4.555-0.91c-0.103-0.547-0.205-1.094-0.308-1.639c-4.92-0.402-9.863-0.621-14.757-1.234
		c-51.729-6.496-87.918-34.164-108.749-81.51c-13.108-29.793-13.122-60.939-5.139-92.074
		c24.256-94.604,123.542-149.411,216.217-115.986c65.744,23.712,103.139,72.352,110.705,142.16
		c4.93,45.474-9.004,85.695-39.846,119.447c-36.174,39.586-82.056,54.273-134.897,50.387c0-13.783,0-27.5,0-41.586
		c7.102,0,13.903,0.012,20.706-0.002c70.369-0.156,123.972-64.598,111.355-133.868c-12.137-66.626-69.412-110.303-136.917-103.145
		c-75.887,8.046-120.368,79.913-108.518,142.661c7.44,39.396,45.686,72.146,85.744,72.305c1.445,0.006,2.893-0.34,4.339-0.521
		c0.014-0.598,0.026-1.195,0.039-1.793c-1.412-0.219-2.835-0.387-4.235-0.666c-9.425-1.879-19.284-2.59-28.191-5.879
		c-40.21-14.844-62.531-56.092-55.326-100.803c9.177-56.955,54.314-98.554,111.86-103.09
		c66.631-5.251,126.149,47.539,129.815,114.284c3.516,63.992-48.201,126.439-130.973,116.945c0-6.73,0-13.523,0-20.314
		c0-6.934,0-13.869,0-21.125c7.953,0,15.263,0.113,22.567-0.021c27.806-0.51,53.238-18.959,62.437-45.199
		c16.707-47.655-20.084-100.775-71.134-102.706c-43.741-1.654-78.896,28.199-84.568,71.817
		c-3.501,26.922,14.225,50.229,41.006,53.814c2.179,0.291,4.431,0.039,6.648,0.039c0.027-0.717,0.055-1.432,0.082-2.146
		c-1.609-0.223-3.213-0.535-4.831-0.654c-22.263-1.656-40.401-20.514-40.101-42.861c0.439-32.644,15.963-56.547,45.433-69.903
		c29.913-13.558,58.666-9.33,83.178,12.726c22.193,19.97,30.902,45.707,22.439,74.72c-11.408,39.109-45.001,51.512-82.769,46.748
		c0-13.398,0-26.783,0-40.363c6.71,0,13.035,0.043,19.359-0.008c13.609-0.107,23.986-10.398,24.247-23.992
		c0.303-15.779-10.366-30.132-25.173-33.864c-16.382-4.129-33.384,3.171-40.84,17.597c-2.767,5.353-4.461,10.955-2.867,17.216
		c1.259-1.279,1.784-2.76,1.942-4.279c1.798-17.228,17.124-29.798,34.955-28.614c16.664,1.107,29.561,15.473,28.981,32.282
		c-0.349,10.107-7.561,19.199-17.369,20.273c-7.674,0.842-15.514,0.17-23.623,0.17c0-7.033-0.055-13.672,0.017-20.309
		c0.065-6.074,3.289-9.924,8.556-10.43c5.229-0.504,8.926,2.574,10.441,8.533c0.24,0.945,0.992,1.762,1.508,2.637
		c0.473-0.174,0.945-0.348,1.418-0.523c-0.196-1.719-0.12-3.523-0.637-5.141c-1.874-5.854-7.663-9.325-13.682-8.417
		c-5.95,0.9-10.425,5.833-10.575,12.116c-0.171,7.107-0.039,14.225-0.039,21.754c-6.845,0-13.14,0.014-19.436-0.004
		c-13.819-0.039-22.792-9.18-22.566-22.971c0.378-23.067,16.764-44.452,38.959-50.845c23.358-6.729,48.572,2.333,61.217,22.598
		c23.545,37.732-2.803,73.597-33.78,73.298c-0.855-0.008-1.721,0.957-2.581,1.469c0.155,0.453,0.311,0.908,0.466,1.361
		c1.777,0,3.564,0.123,5.33-0.02c22.045-1.771,40.493-20.277,42.288-42.379c2.547-31.339-22.669-60.054-53.959-61.444
		c-32.93-1.463-60.582,23.99-60.941,56.096c-0.172,15.404,10.059,25.801,25.444,25.836c6.43,0.016,12.86,0.004,19.141,0.004
		c0,14.082,0,27.469,0,40.994c-7.907,0-15.41,0.184-22.9-0.041c-12.418-0.375-24.069-3.693-34.299-10.82
		c-23.564-16.418-31.966-39.291-28.556-67.354c5.866-48.265,48.413-86.966,97.023-86.629c43.06,0.299,74.915,20.219,92.549,59.59
		c28.789,64.281-17.309,126.753-77.718,128.279c-1.254,0.031-2.499,0.441-3.747,0.674c0.028,0.582,0.057,1.164,0.085,1.744
		c1.606,0.178,3.221,0.555,4.82,0.498c14.046-0.488,27.342-3.975,39.644-10.75c36.906-20.32,54.475-58.664,46.475-101.063
		c-10.152-53.806-65.274-91.126-118.724-80.384c-46.573,9.359-79.362,44.89-83.833,92.066c-2.753,29.043,8.206,52.131,33.346,67.727
		c10.568,6.557,22.301,9.449,34.732,9.469c7.094,0.01,14.187,0.002,21.267,0.002c0,14.32,0,27.922,0,41.943
		c-8.529,0-16.825,0.252-25.102-0.051c-20.772-0.76-40.164-6.457-57.22-18.422c-38.808-27.225-54.271-65.045-48.104-111.514
		c10.764-81.101,89.812-137.29,170.112-121.486c73.934,14.551,123.807,80.689,115.44,155.708
		c-5.84,52.361-34.764,88.887-83.197,109.654c-14.379,6.168-29.657,8.678-45.272,9.197c-1.503,0.051-2.986,0.646-4.479,0.99
		c0.123,0.654,0.246,1.311,0.37,1.967c1.609,0,3.221,0.041,4.829-0.008c13.913-0.426,27.522-2.689,40.625-7.41
		c62.156-22.385,98.953-83.477,90.01-149.272c-11.955-87.96-99.598-145.066-185.412-120.813
		C138.316,118.078,96.911,167.416,90.37,228.545c-5.744,53.673,24.02,102.073,74.121,120.706c15.91,5.918,32.398,7.213,49.16,6.773
		c3.587-0.094,7.179-0.014,10.732-0.014c0,14.338,0,27.939,0,41.992c-8.541,0-16.837,0.215-25.119-0.037
		c-34.937-1.064-66.574-11.965-93.398-34.367c-49.099-41.006-66.534-94.066-54.828-156.209
		C71.183,100.438,178.327,32.946,283.782,59.832c77.902,19.861,134.445,86.282,140.988,166.322
		c4.852,59.375-14.992,109.496-59.16,149.333c-32.279,29.115-70.865,43.422-114.328,44.547c-1.566,0.041-3.125,0.432-4.687,0.658
		c0.019,0.59,0.037,1.18,0.056,1.77c1.795,0.178,3.598,0.566,5.385,0.506c52.876-1.809,97.343-22.125,132.207-61.9
		c53.186-60.678,59.244-150.8,15.531-219.963C340.13,46.735,214.407,21.695,124.449,87.64
		c-58.391,42.805-86.295,101.827-78.13,174.053c7.08,62.635,43.12,105.711,101.728,129.287
		c17.789,7.156,36.525,10.086,55.708,10.033c6.916-0.018,13.831-0.002,20.769-0.002
		C224.523,415.304,224.523,428.787,224.523,443.009z"/>
	<path fill-rule="evenodd" clip-rule="evenodd" d="M224.523,443.009c0-14.223,0-27.705,0-41.998c-6.938,0-13.853-0.016-20.769,0.002
		c-19.183,0.053-37.919-2.877-55.708-10.033c-58.607-23.576-94.647-66.652-101.728-129.287
		c-8.165-72.226,19.739-131.249,78.13-174.053c89.958-65.944,215.681-40.904,275.326,53.465
		c43.713,69.163,37.654,159.286-15.531,219.963c-34.863,39.775-79.33,60.092-132.207,61.9c-1.787,0.061-3.59-0.328-5.385-0.506
		c-0.019-0.59-0.037-1.18-0.056-1.77c1.562-0.227,3.12-0.617,4.687-0.658c43.462-1.125,82.048-15.432,114.328-44.547
		c44.168-39.838,64.012-89.959,59.16-149.333c-6.543-80.04-63.086-146.461-140.988-166.322
		C178.327,32.946,71.183,100.438,51.038,207.39c-11.706,62.143,5.729,115.204,54.828,156.209
		c26.824,22.402,58.462,33.303,93.398,34.367c8.282,0.252,16.578,0.037,25.119,0.037c0-14.053,0-27.654,0-41.992
		c-3.554,0-7.146-0.08-10.732,0.014c-16.762,0.439-33.25-0.855-49.16-6.773c-50.102-18.633-79.865-67.033-74.121-120.706
		c6.541-61.129,47.946-110.467,106.624-127.051c85.814-24.253,173.457,32.854,185.412,120.813
		c8.943,65.795-27.854,126.887-90.01,149.272c-13.103,4.721-26.712,6.984-40.625,7.41c-1.608,0.049-3.22,0.008-4.829,0.008
		c-0.124-0.656-0.247-1.312-0.37-1.967c1.492-0.344,2.976-0.939,4.479-0.99c15.615-0.52,30.893-3.029,45.272-9.197
		c48.434-20.768,77.357-57.293,83.197-109.654c8.367-75.018-41.506-141.157-115.44-155.708
		c-80.3-15.804-159.349,40.386-170.112,121.486c-6.167,46.469,9.297,84.29,48.104,111.514c17.056,11.965,36.447,17.662,57.22,18.422
		c8.276,0.303,16.572,0.051,25.102,0.051c0-14.021,0-27.623,0-41.943c-7.08,0-14.173,0.008-21.267-0.002
		c-12.432-0.02-24.164-2.912-34.732-9.469c-25.14-15.596-36.099-38.684-33.346-67.727c4.471-47.176,37.26-82.707,83.833-92.066
		c53.45-10.742,108.572,26.578,118.724,80.384c8,42.399-9.568,80.743-46.475,101.063c-12.302,6.775-25.598,10.262-39.644,10.75
		c-1.6,0.057-3.214-0.32-4.82-0.498c-0.028-0.58-0.057-1.162-0.085-1.744c1.248-0.232,2.493-0.643,3.747-0.674
		c60.41-1.525,106.507-63.998,77.718-128.279c-17.635-39.371-49.49-59.291-92.549-59.59c-48.61-0.337-91.157,38.364-97.023,86.629
		c-3.41,28.063,4.991,50.937,28.556,67.354c10.229,7.127,21.881,10.445,34.299,10.82c7.49,0.225,14.993,0.041,22.9,0.041
		c0-13.525,0-26.912,0-40.994c-6.28,0-12.711,0.012-19.141-0.004c-15.386-0.035-25.616-10.432-25.444-25.836
		c0.359-32.106,28.012-57.559,60.941-56.096c31.29,1.39,56.506,30.104,53.959,61.444c-1.795,22.102-20.243,40.607-42.288,42.379
		c-1.766,0.143-3.553,0.02-5.33,0.02c-0.155-0.453-0.311-0.908-0.466-1.361c0.86-0.512,1.726-1.477,2.581-1.469
		c30.977,0.299,57.325-35.566,33.78-73.298c-12.645-20.265-37.859-29.327-61.217-22.598c-22.195,6.394-38.581,27.778-38.959,50.845
		c-0.226,13.791,8.747,22.932,22.566,22.971c6.296,0.018,12.591,0.004,19.436,0.004c0-7.529-0.132-14.646,0.039-21.754
		c0.15-6.283,4.625-11.216,10.575-12.116c6.019-0.908,11.808,2.563,13.682,8.417c0.517,1.617,0.44,3.422,0.637,5.141
		c-0.473,0.176-0.945,0.35-1.418,0.523c-0.516-0.875-1.268-1.691-1.508-2.637c-1.516-5.959-5.213-9.037-10.441-8.533
		c-5.267,0.506-8.49,4.355-8.556,10.43c-0.071,6.637-0.017,13.275-0.017,20.309c8.109,0,15.949,0.672,23.623-0.17
		c9.809-1.074,17.021-10.166,17.369-20.273c0.579-16.809-12.317-31.174-28.981-32.282c-17.831-1.185-33.157,11.386-34.955,28.614
		c-0.158,1.52-0.684,3-1.942,4.279c-1.594-6.262,0.101-11.863,2.867-17.216c7.456-14.426,24.458-21.726,40.84-17.597
		c14.807,3.731,25.476,18.085,25.173,33.864c-0.261,13.594-10.638,23.885-24.247,23.992c-6.324,0.051-12.649,0.008-19.359,0.008
		c0,13.58,0,26.965,0,40.363c37.768,4.764,71.361-7.639,82.769-46.748c8.463-29.014-0.246-54.75-22.439-74.72
		c-24.512-22.056-53.265-26.283-83.178-12.726c-29.47,13.355-44.993,37.259-45.433,69.903
		c-0.301,22.348,17.838,41.205,40.101,42.861c1.618,0.119,3.222,0.432,4.831,0.654c-0.027,0.715-0.055,1.43-0.082,2.146
		c-2.218,0-4.47,0.252-6.648-0.039c-26.781-3.586-44.507-26.893-41.006-53.814c5.673-43.618,40.827-73.471,84.568-71.817
		c51.05,1.931,87.841,55.051,71.134,102.706c-9.199,26.24-34.631,44.689-62.437,45.199c-7.305,0.135-14.614,0.021-22.567,0.021
		c0,7.256,0,14.191,0,21.125c0,6.791,0,13.584,0,20.314c82.772,9.494,134.489-52.953,130.973-116.945
		c-3.666-66.745-63.184-119.535-129.815-114.284c-57.546,4.536-102.684,46.135-111.86,103.09
		c-7.205,44.711,15.116,85.959,55.326,100.803c8.907,3.289,18.767,4,28.191,5.879c1.4,0.279,2.823,0.447,4.235,0.666
		c-0.013,0.598-0.025,1.195-0.039,1.793c-1.446,0.182-2.894,0.527-4.339,0.521c-40.059-0.158-78.304-32.908-85.744-72.305
		c-11.851-62.748,32.631-134.615,108.518-142.661c67.505-7.158,124.781,36.519,136.917,103.145
		c12.617,69.27-40.986,133.711-111.355,133.868c-6.803,0.014-13.604,0.002-20.706,0.002c0,14.086,0,27.803,0,41.586
		c52.841,3.887,98.723-10.801,134.897-50.387c30.842-33.752,44.775-73.973,39.846-119.447
		c-7.566-69.809-44.961-118.448-110.705-142.16C199.304,52.179,100.018,106.986,75.762,201.59
		c-7.983,31.134-7.97,62.281,5.139,92.074c20.831,47.346,57.021,75.014,108.749,81.51c4.894,0.613,9.837,0.832,14.757,1.234
		c0.103,0.545,0.205,1.092,0.308,1.639c-1.519,0.318-3.045,0.947-4.555,0.91c-17.158-0.41-33.708-3.799-49.508-10.561
		c-55.285-23.66-88.486-80.658-82.354-140.494c5.077-49.54,26.912-89.779,66.217-120.215
		c80.434-62.285,200.463-38.107,249.676,50.917c31.035,56.143,31.764,113.315-2.367,168.438
		c-26.854,43.369-67.119,67.559-118.012,72.912c-11.681,1.229-23.6,0.18-35.789,0.18c0,14.799,0,28.518,0,42.664
		c10.38,0,20.857,0.639,31.236-0.105c63.194-4.533,114.165-32.057,151.444-83.295c32.627-44.846,44.551-95.457,35.014-150.021
		c-14.242-81.482-61.121-137.352-138.35-166.129c-84.16-31.36-180.46-2.741-236.277,68.409
		c-32.565,41.512-47.892,88.914-45.1,141.51c4.215,79.395,61.512,145.867,139.476,162.639c11.323,2.436,23.081,2.859,34.64,4.195
		c1.423,0.164,2.86,0.207,4.291,0.307c0.106,0.578,0.212,1.158,0.318,1.738c-1.52,0.318-3.044,0.936-4.559,0.914
		c-16.406-0.236-32.631-2.264-48.223-7.35c-68.152-22.227-111.221-68.35-125.67-138.449c-11.074-53.73,0.392-104.746,30.626-150.324
		c44.979-67.806,109.223-101.316,190.527-98.393c99.809,3.59,183.62,78.3,201.047,176.742
		C467.735,314.041,399.687,416.81,291.69,441.13c-13.859,3.119-28.353,3.562-42.592,4.777c-6.915,0.592-13.922,0.104-21.908,0.104
		c0,7.906,0,15.453,0,23.002c-0.629-0.006-1.258-0.01-1.887-0.014c0-7.406,0-14.812,0-22.988c-3.758,0-6.678-0.07-9.593,0.01
		c-25.658,0.709-51.044-1.346-75.342-10.047C65.467,409.146,18.811,356.597,4.213,278.568
		c-12.12-64.79,4.133-124.548,43.432-177.247c41.17-55.208,96.82-86.668,165.267-93.983
		C312.233-3.277,408.247,49.38,449.999,140.011c40.508,87.934,31.584,172.182-30.029,248.069
		c-36.434,44.873-85.084,70.133-142.481,77.945c-8.725,1.188-17.588,1.387-26.393,1.947c-1.457,0.094-2.945-0.305-4.42-0.477
		c-0.027-0.578-0.055-1.156-0.082-1.736c1.376-0.25,2.748-0.689,4.129-0.721c63.112-1.447,116.682-24.881,159.967-70.729
		c32.619-34.549,52.262-75.756,57.967-123.043c8.035-66.6-9.215-126.402-52.008-177.919c-41.541-50.011-95.439-78.077-160.401-83.39
		C193.444,4.821,137.074,22.352,88.587,62.499C38.209,104.213,9.613,158.273,4.638,223.628
		c-5.806,76.278,22.573,137.84,84.26,183.125c32.991,24.219,70.823,35.543,111.762,36.238
		C208.457,443.123,216.258,443.009,224.523,443.009z"/>
</g>
</svg>
